<svg width="435" height="136" viewBox="0 0 435 136" fill="none" xmlns="http://www.w3.org/2000/svg">
<path d="M10.6914 82.3136V29.8507C10.6914 26.9361 10.2704 24.6044 9.42838 22.8556C8.65115 21.0421 6.80523 20.1353 3.89063 20.1353H1.94755V18.1922H27.2075C29.7335 18.1922 32.4862 18.3866 35.4655 18.7752C38.5097 19.1638 41.3919 19.941 44.1122 21.1068C46.8325 22.2079 49.067 23.8919 50.8158 26.1588C52.5646 28.4258 53.4389 31.4375 53.4389 35.1941C53.4389 38.1087 52.435 40.829 50.4272 43.355C48.4193 45.8162 45.2133 47.7917 40.809 49.2814C45.019 49.9291 48.2898 50.9978 50.6215 52.4875C52.9532 53.9124 54.5724 55.6611 55.4792 57.7337C56.3859 59.8064 56.8393 62.1704 56.8393 64.826C56.8393 68.453 56.0297 71.4324 54.4105 73.7641C52.7913 76.031 50.6539 77.7798 47.9983 79.0104C45.4076 80.241 42.5254 81.1154 39.3517 81.6335C36.2428 82.0869 33.1662 82.3136 30.1221 82.3136H10.6914ZM28.6648 78.9132C34.5588 78.9132 39.0926 77.7474 42.2663 75.4157C45.5047 73.084 47.124 69.716 47.124 65.3117C47.124 60.9074 45.5695 57.5394 42.4606 55.2078C39.3517 52.8761 34.7531 51.7102 28.6648 51.7102H19.4352V77.5531C20.9249 78.0065 22.447 78.3627 24.0014 78.6218C25.6206 78.8161 27.1751 78.9132 28.6648 78.9132ZM19.4352 47.8241H28.6648C31.2555 47.8241 33.7168 47.3383 36.0485 46.3668C38.4449 45.3952 40.388 43.9379 41.8777 41.9949C43.4321 40.0518 44.2094 37.623 44.2094 34.7084C44.2094 31.5994 43.2702 29.0734 41.3919 27.1304C39.5784 25.1873 37.3115 23.7948 34.5912 22.9528C31.9356 22.046 29.3125 21.5926 26.7217 21.5926C25.4911 21.5926 24.1957 21.6898 22.8356 21.8841C21.5402 22.0784 20.4067 22.3051 19.4352 22.5642V47.8241ZM71.1277 82.3136V29.8507C71.1277 26.9361 70.7067 24.6044 69.8647 22.8556C69.0875 21.0421 67.2416 20.1353 64.327 20.1353H62.3839V18.1922H103.771C106.038 18.1922 107.755 18.5809 108.92 19.3581C110.086 20.0705 110.896 21.0421 111.349 22.2727C111.803 23.4385 112.029 24.6691 112.029 25.9645V33.251H110.086C110.086 29.3649 109.018 26.5475 106.88 24.7987C104.808 22.9852 101.828 22.0784 97.9421 22.0784H79.8715V47.3383H106.103V51.2245H79.8715V78.4275H96.8734C101.278 78.4275 104.743 77.6178 107.269 75.9986C109.86 74.3794 111.9 71.6267 113.39 67.7406L115.333 68.2263L111.932 77.4559C111.414 78.9456 110.54 80.1438 109.309 81.0506C108.143 81.8926 106.589 82.3136 104.646 82.3136H71.1277ZM125.13 41.0233L124.158 39.566C125.842 38.4002 127.235 37.202 128.336 35.9713C129.502 34.676 130.376 33.251 130.959 31.6966C131.607 30.1421 131.931 28.3934 131.931 26.4503L129.016 27.4218C127.526 27.4218 126.263 26.9037 125.227 25.8674C124.191 24.8311 123.673 23.5681 123.673 22.0784C123.673 20.3944 124.223 19.0019 125.324 17.9008C126.425 16.7997 127.818 16.2492 129.502 16.2492C131.445 16.2492 132.967 16.8321 134.068 17.9979C135.234 19.1638 135.817 20.8478 135.817 23.0499C135.817 27.1951 134.878 30.7574 132.999 33.7368C131.186 36.6514 128.563 39.0803 125.13 41.0233ZM189.401 82.3136V22.0784H180.657C176.771 22.0784 173.759 22.9852 171.622 24.7987C169.549 26.5475 168.513 29.3649 168.513 33.251H166.57V25.9645C166.57 24.6691 166.796 23.4385 167.25 22.2727C167.703 21.0421 168.513 20.0705 169.679 19.3581C170.909 18.5809 172.626 18.1922 174.828 18.1922H220.004V22.0784H198.145V82.3136H189.401ZM274.485 82.7994C273.06 82.7994 271.311 82.5403 269.238 82.0221C267.166 81.4392 265.125 80.2734 263.118 78.5246C261.11 76.7111 259.393 73.926 257.968 70.1694L255.54 63.8544H228.337L220.564 82.3136H216.192L243.395 18.1922H246.31L267.684 70.1694C269.238 73.7965 270.728 76.3548 272.153 77.8445C273.578 79.2695 275.65 80.1115 278.371 80.3705V82.3136C277.853 82.4431 277.237 82.5403 276.525 82.6051C275.877 82.7346 275.197 82.7994 274.485 82.7994ZM229.794 59.9683H253.597L241.938 31.7937L229.794 59.9683ZM332.074 83.2851L290.298 31.308V82.3136H286.412V29.8507C286.412 26.9361 285.796 24.6044 284.566 22.8556C283.335 21.0421 281.036 20.1353 277.668 20.1353H276.696V18.1922H283.011C286.185 18.1922 288.776 18.7104 290.784 19.7467C292.856 20.783 294.637 22.2079 296.127 24.0215L330.131 66.2833V18.1922H334.017V83.2851H332.074ZM359.624 82.3136C357.357 82.3136 355.576 82.0221 354.28 81.4392C353.05 80.8563 352.175 79.7228 351.657 78.0388C351.139 76.3548 350.88 73.8936 350.88 70.6552V18.1922H359.624V70.6552C359.624 73.5698 360.012 75.9338 360.79 77.7474C361.632 79.4961 363.51 80.3705 366.424 80.3705H368.368V82.3136H359.624ZM430.367 82.7994C428.942 82.7994 427.193 82.5403 425.12 82.0221C423.048 81.4392 421.008 80.2734 419 78.5246C416.992 76.7111 415.275 73.926 413.851 70.1694L411.422 63.8544H384.219L376.446 82.3136H372.075L399.278 18.1922H402.192L423.566 70.1694C425.12 73.7965 426.61 76.3548 428.035 77.8445C429.46 79.2695 431.533 80.1115 434.253 80.3705V82.3136C433.735 82.4431 433.119 82.5403 432.407 82.6051C431.759 82.7346 431.079 82.7994 430.367 82.7994ZM385.676 59.9683H409.479L397.82 31.7937L385.676 59.9683Z" fill="white"/>
<path d="M136.408 100.88V122H130.904V100.88H136.408ZM122.84 100.88V122H117.336V100.88H122.84ZM133.848 109.232V113.488H120.024V109.232H133.848ZM150.558 100.56C152.691 100.56 154.526 100.997 156.062 101.872C157.619 102.725 158.814 103.963 159.646 105.584C160.478 107.205 160.894 109.157 160.894 111.44C160.894 113.723 160.478 115.675 159.646 117.296C158.814 118.917 157.619 120.165 156.062 121.04C154.526 121.893 152.691 122.32 150.558 122.32C148.425 122.32 146.579 121.893 145.022 121.04C143.465 120.165 142.27 118.917 141.438 117.296C140.606 115.675 140.19 113.723 140.19 111.44C140.19 109.157 140.606 107.205 141.438 105.584C142.27 103.963 143.465 102.725 145.022 101.872C146.579 100.997 148.425 100.56 150.558 100.56ZM150.558 104.88C149.534 104.88 148.67 105.125 147.966 105.616C147.262 106.107 146.729 106.843 146.366 107.824C146.003 108.784 145.822 109.989 145.822 111.44C145.822 112.869 146.003 114.075 146.366 115.056C146.729 116.037 147.262 116.773 147.966 117.264C148.67 117.755 149.534 118 150.558 118C151.582 118 152.435 117.755 153.118 117.264C153.822 116.773 154.355 116.037 154.718 115.056C155.081 114.075 155.262 112.869 155.262 111.44C155.262 109.989 155.081 108.784 154.718 107.824C154.355 106.843 153.822 106.107 153.118 105.616C152.435 105.125 151.582 104.88 150.558 104.88ZM172.748 100.56C174.711 100.56 176.439 100.869 177.932 101.488C179.447 102.085 180.759 102.971 181.868 104.144L179.212 107.696C178.295 106.736 177.303 106.021 176.236 105.552C175.191 105.061 173.996 104.816 172.652 104.816C171.863 104.816 171.223 104.901 170.732 105.072C170.242 105.243 169.89 105.477 169.676 105.776C169.463 106.075 169.356 106.416 169.356 106.8C169.356 107.248 169.559 107.632 169.964 107.952C170.391 108.251 171.074 108.507 172.012 108.72L175.564 109.52C177.676 110.011 179.223 110.725 180.204 111.664C181.186 112.603 181.676 113.851 181.676 115.408C181.676 116.901 181.292 118.171 180.524 119.216C179.756 120.24 178.7 121.019 177.356 121.552C176.012 122.064 174.476 122.32 172.748 122.32C171.34 122.32 169.996 122.171 168.716 121.872C167.436 121.552 166.284 121.104 165.26 120.528C164.236 119.952 163.372 119.291 162.668 118.544L165.324 114.864C165.858 115.483 166.508 116.037 167.276 116.528C168.066 116.997 168.919 117.371 169.836 117.648C170.775 117.925 171.724 118.064 172.684 118.064C173.431 118.064 174.05 117.989 174.54 117.84C175.052 117.691 175.426 117.467 175.66 117.168C175.895 116.869 176.012 116.517 176.012 116.112C176.012 115.664 175.852 115.291 175.532 114.992C175.212 114.672 174.604 114.405 173.708 114.192L169.804 113.328C168.61 113.051 167.543 112.688 166.604 112.24C165.687 111.771 164.962 111.152 164.428 110.384C163.895 109.595 163.628 108.613 163.628 107.44C163.628 106.117 163.991 104.944 164.716 103.92C165.442 102.875 166.487 102.053 167.852 101.456C169.218 100.859 170.85 100.56 172.748 100.56ZM194.813 100.88C196.541 100.88 198.013 101.157 199.229 101.712C200.445 102.267 201.373 103.067 202.013 104.112C202.653 105.157 202.973 106.427 202.973 107.92C202.973 109.413 202.653 110.683 202.013 111.728C201.373 112.773 200.445 113.573 199.229 114.128C198.013 114.683 196.541 114.96 194.813 114.96H190.621V122H185.117V100.88H194.813ZM193.949 110.832C195.101 110.832 195.965 110.597 196.541 110.128C197.139 109.637 197.437 108.901 197.437 107.92C197.437 106.939 197.139 106.213 196.541 105.744C195.965 105.253 195.101 105.008 193.949 105.008H190.621V110.832H193.949ZM206.492 122V100.88H222.94V105.136H211.996V109.424H220.7V113.424H211.996V117.744H223.356V122H206.492ZM235.64 100.88C238.946 100.88 241.474 101.797 243.224 103.632C244.994 105.467 245.88 108.069 245.88 111.44C245.88 114.811 244.994 117.413 243.224 119.248C241.474 121.083 238.946 122 235.64 122H226.68V100.88H235.64ZM235.096 117.84C236.888 117.84 238.189 117.307 239 116.24C239.832 115.152 240.248 113.552 240.248 111.44C240.248 109.328 239.832 107.739 239 106.672C238.189 105.584 236.888 105.04 235.096 105.04H232.184V117.84H235.096ZM268.067 122H262.403L260.931 117.232H253.699L252.195 122H246.659L254.083 100.88H260.675L268.067 122ZM254.723 113.488H259.907L257.315 104.944L254.723 113.488ZM286.012 100.88V113.872C286.012 116.539 285.244 118.619 283.708 120.112C282.172 121.584 279.996 122.32 277.18 122.32C275.11 122.32 273.446 121.957 272.188 121.232C270.929 120.485 270.065 119.461 269.596 118.16C269.126 116.837 269.03 115.333 269.308 113.648L274.684 112.688C274.428 114.629 274.513 116.005 274.94 116.816C275.388 117.605 276.198 118 277.372 118C278.524 118 279.334 117.616 279.804 116.848C280.273 116.08 280.508 114.896 280.508 113.296V100.88H286.012ZM290.305 122V100.88H306.753V105.136H295.809V109.424H304.513V113.424H295.809V117.744H307.169V122H290.305Z" fill="white"/>
</svg>
